<svg xmlns="http://www.w3.org/2000/svg" xmlns:xlink="http://www.w3.org/1999/xlink" width="630" height="300" viewBox="0 0 630 300">
  <defs>
    <clipPath id="clip-path">
      <rect id="Rectangle_274" data-name="Rectangle 274" width="630" height="119" transform="translate(876 703.09)" fill="#fff" stroke="#707070" stroke-width="1"/>
    </clipPath>
    <clipPath id="clip-path-2">
      <rect id="Rectangle_272" data-name="Rectangle 272" width="152" height="146" transform="translate(885 565.09)" fill="#fff" stroke="#707070" stroke-width="1"/>
    </clipPath>
    <clipPath id="clip-path-3">
      <rect id="Rectangle_273" data-name="Rectangle 273" width="407" height="251" transform="translate(1033 614.09)" fill="#fff" stroke="#707070" stroke-width="1"/>
    </clipPath>
    <clipPath id="clip-path-4">
      <rect id="Rectangle_275" data-name="Rectangle 275" width="82" height="127" transform="translate(1248 669.09)" fill="#fff" stroke="#707070" stroke-width="1"/>
    </clipPath>
  </defs>
  <g id="Logo" transform="translate(-2321 12500)">
    <g id="logo-2" fill="#000" data-name="logo" transform="translate(1445 -13065.09)">
      <g id="Mask_Group_9" fill="#000" data-name="Mask Group 9" clip-path="url(#clip-path)">
        <g id="Oklohoma" >
          <path  id="Path_321" data-name="Path 321" d="M952.782,765.082a35.194,35.194,0,0,1-18.763,18.763,34.292,34.292,0,0,1-13.682,2.766,33.933,33.933,0,0,1-13.631-2.766,35.321,35.321,0,0,1-18.712-18.763,35.207,35.207,0,0,1,0-27.363,34.906,34.906,0,0,1,7.545-11.167,36.1,36.1,0,0,1,11.167-7.495,33.934,33.934,0,0,1,13.631-2.766,34.293,34.293,0,0,1,13.682,2.766,35.917,35.917,0,0,1,11.217,7.495,34.924,34.924,0,0,1,7.546,11.167,35.22,35.22,0,0,1,0,27.363Zm-12.525-33.5a28.053,28.053,0,1,0,8.249,19.819A27.142,27.142,0,0,0,940.257,731.582Z"/>
          <path id="Path_322" data-name="Path 322" d="M982.713,785.806V717.4h7.043v32.1l23.037-32.1h9.054L996.7,751.6l25.15,34.2h-9.054l-23.037-32.1v32.1Z"/>
          <path id="Path_323" data-name="Path 323" d="M1076.98,778.764v7.042h-31.488V717.4h7.042v61.367Z"/>
          <path id="Path_324" data-name="Path 324" d="M1147.5,785.806l-7.339-18.611h-30.057l-7.372,18.611h-7.646l30.08-73.137,29.979,73.137Zm-9.917-25.15-12.417-31.489L1112.7,760.656Z"/>
          <path id="Path_325" data-name="Path 325" d="M1178.793,785.806V717.4h7.042v30.784h31.086V717.4h7.042v68.409h-7.042V755.223h-31.086v30.583Z"/>
          <path id="Path_327" data-name="Path 327" d="M1401.029,737.115l-20.523,52.715-20.624-52.715-10.563,48.691h-7.243l16-72.936,22.434,58.55,22.434-58.55,15.9,72.936h-7.142Z"/>
          <path id="Path_328" data-name="Path 328" d="M1488.355,785.806l-7.339-18.611h-30.058l-7.372,18.611h-7.645l30.08-73.137L1496,785.806Zm-9.918-25.15-12.416-31.489-12.472,31.489Z"/>
        </g>
      </g>
      <g id="Mask_Group_7"  data-name="Mask Group 7" clip-path="url(#clip-path-2)">
        <g id="Buy_Text" data-name="Buy Text">
          <text id="Buy" transform="translate(885 683.787)" fill="#b48618" font-size="139.341" font-family="SegoeUI, Segoe UI"><tspan x="0" y="0">Buy</tspan></text>
        </g>
      </g>
      <g id="Mask_Group_8" data-name="Mask Group 8" clip-path="url(#clip-path-3)">
        <path id="Path_320" data-name="Path 320" d="M1309.33,827.67c1.155,2.453.5,4.323-1.658,5.715l-2.221-.741-.223.462,1.61,1.114-.727-.065c-.325,1.312-.6,2.641-1,3.931-.223.723-.517,1.81-1.019,1.967a3.066,3.066,0,0,1-2.4-.53c-1.742-1.319-1.651-3.79-.777-5.852a4.266,4.266,0,0,0-.964-3.747c-1.09-1.085-1.977.034-2.363,1.294a4.511,4.511,0,0,1-.577.911c-1.961-1.148-3.177-.584-4.327,1.348-.471.793-2.168,1.2-3.3,1.177-1.585-.026-1.358-1.392-1.258-2.584.195-2.325-1.109-3.294-3.321-2.443-1.871.719-3.217,1.169-3.292-1.784-.021-.852-1.6-1.963-2.689-2.372-.6-.226-1.787.61-2.481,1.225-1.944,1.721-3.64,3.747-5.7,5.29-.813.607-2.4.5-3.536.264a14.787,14.787,0,0,1-3.285-1.492,22.69,22.69,0,0,0,.834-4.452c0-.5-1.227-1.384-1.925-1.417-3.8-.18-4.4-.495-5.383-4.055-.145-.529.594-1.245.654-1.9a13.05,13.05,0,0,0-.22-2.475c-.652.232-1.319.431-1.953.7s-1.279.96-1.82.868a23.158,23.158,0,0,1-6.027-1.509c-2.034-.961-2.952-.245-3.865,1.38a6.059,6.059,0,0,1-1.587,1.931c-1.929,1.4-3.352,1.059-4.716-1.1-2.036-3.225-3.972-3.907-6.022-2.876a25.807,25.807,0,0,1-3.317,1.163c-.226.078-.51.275-.672.2-2.785-1.233-5.591-2.425-8.311-3.79a6.12,6.12,0,0,0-3.984-.892,32.819,32.819,0,0,1-7.5-.342c-.3-.029-.748-.838-.766-1.3-.175-4.633-1.915-8.263-6.193-10.513-.682-.358-.986-1.434-1.464-2.179l-.922.478a18.451,18.451,0,0,0-.319,1.895c-.156,2.341-1.232,3.028-3.362,2.051-.582-.267-1.059-.758-1.636-1.044-1.642-.812-3.267-1.978-4.523.689-.6,1.274-4.32.812-5.637-.619-2.668-2.9-5.271-5.857-7.935-8.759-1.284-1.4-2.712-2.4-5.063-.313,0-1.488-.018-2.393,0-3.3q1.133-51.13,2.271-102.261c.07-3.124.08-3.107-3.123-3.219-31.72-1.108-63.442-2.168-95.158-3.362-11.76-.443-23.509-1.207-35.262-1.829-.472-.025-.941-.107-1.69-.194l1.488-27.3c125.271,6.578,250.435,7.664,376.185,3.863,0,2.595.047,5-.007,7.4-.387,17,2.954,33.567,5.845,50.186,1.738,9.989,3.465,19.98,5.1,29.985a41.038,41.038,0,0,1,.363,6.307q.348,45.909.621,91.818a7.555,7.555,0,0,1-.743,2.607c-.05.128-.709.137-1.017.02a4.182,4.182,0,0,1-.939-.517c-.773-.95-1.117-1.791-1.693-2a43.115,43.115,0,0,0-6.514-1.966c-1.863-.368-2.564-.954-2.216-2.43h-3.054c-.735.839-3.106.01-4.122-1.8a10.221,10.221,0,0,0-2.823-3.6c-1.4-.933-3.29-1.1-4.86-1.831-.628-.293-.377-1.691-1.884-1.358-.7.156-1.632-1.059-2.544-1.457-2.819-1.228-2.75-1.163-3.7,1.675-.247.733-1.206,1.227-2.232,2.207h-11.17c-1.141-3.481-1.168-3.306-4.108-1.989-1.525.683-2.949,2.306-5.068,1.5-.22-.084-.985,1.263-1.311,2.134-.92.472-2.614-1.5-2.974,1.137l-4.186-2.493.073.655a70.247,70.247,0,0,1-7.5,1.436c-2.78.244-3.4.615-4.088,3.648-.391,1.72-1.813,2.345-3.145,1.6-2.606-1.463-3.249-.446-3.49,2.014-.069.7-.9,1.322-1.534,2.18-.987-1.373-1.786-2.357-2.443-3.428-.971-1.585-2.043-2.763-4.113-1.827a1.021,1.021,0,0,1-.684-.017c-.685-3.007-4.392-1.793-5.721-4.126l1.382-2.1-3.97-1.4a11.173,11.173,0,0,1-.814,2.676,4.769,4.769,0,0,1-2.044,1.981c-.451.179-1.571-.514-1.945-1.1-1.291-2.011-2.621-.741-4.255.016a27.176,27.176,0,0,1-1.441-3.623c-.4-1.657-.765-2.949-2.839-1.621C1310.709,827.73,1310.082,827.6,1309.33,827.67Z" fill="none" stroke="#b48618" stroke-miterlimit="10" stroke-width="5"/>
      </g>
      <g id="Mask_Group_10" data-name="Mask Group 10" clip-path="url(#clip-path-4)">
        <g id="O">
          <path id="Path_326" data-name="Path 326" d="M1318.684,765.082a35.2,35.2,0,0,1-18.763,18.763,34.3,34.3,0,0,1-13.682,2.766,33.929,33.929,0,0,1-13.631-2.766,35.322,35.322,0,0,1-18.712-18.763,35.208,35.208,0,0,1,0-27.363,34.9,34.9,0,0,1,7.545-11.167,36.085,36.085,0,0,1,11.167-7.495,33.93,33.93,0,0,1,13.631-2.766,34.3,34.3,0,0,1,13.682,2.766,35.939,35.939,0,0,1,11.217,7.495,34.923,34.923,0,0,1,7.546,11.167,35.22,35.22,0,0,1,0,27.363Zm-12.526-33.5a28.051,28.051,0,1,0,8.25,19.819A27.138,27.138,0,0,0,1306.158,731.582Z"/>
          <path id="Path_329" data-name="Path 329" d="M1325.53,702.274l-6.175,4.274-32.148-22.258L1254.284,707.1l-6.175-4.274,39.1-27.083Z"/>
        </g>
      </g>
    </g>
  </g>
</svg>
