<svg xmlns="http://www.w3.org/2000/svg" width="57" height="39.267" viewBox="0 0 57 39.267">
  <g id="bars" transform="translate(-10945 -6529.847)">
    <path id="Path_91" data-name="Path 91" d="M10945,6548.685a4.373,4.373,0,0,1,1.393-2.09,3.537,3.537,0,0,1,4.014-.22,3.437,3.437,0,0,1,1.788,3.548,3.52,3.52,0,0,1-2.526,3.021,3.683,3.683,0,0,1-4.5-2.342c-.051-.158-.108-.314-.163-.471Z" fill="#b48618"/>
    <path id="Path_92" data-name="Path 92" d="M10945,6564.7a3.8,3.8,0,0,1,2.689-2.713,3.63,3.63,0,1,1,1.74,7.048,3.768,3.768,0,0,1-4.246-2.365c-.062-.174-.123-.349-.184-.524Z" fill="#b48618"/>
    <path id="Path_93" data-name="Path 93" d="M10945,6532.669a4.44,4.44,0,0,1,1.489-2.153,3.656,3.656,0,0,1,5.68,2.424,3.769,3.769,0,0,1-2.629,3.987,3.679,3.679,0,0,1-4.358-2.075c-.062-.134-.121-.269-.182-.4Z" fill="#b48618"/>
    <path id="Path_94" data-name="Path 94" d="M10978.824,6545.858c6.448,0,12.9.026,19.344-.016a3.735,3.735,0,0,1,3.749,2.844,3.623,3.623,0,0,1-3.316,4.366c-.147.007-.3.007-.443.007q-19.345,0-38.688,0a3.6,3.6,0,1,1-.433-7.179c3.168-.047,6.337-.019,9.5-.021Q10973.683,6545.855,10978.824,6545.858Z" fill="#b48618"/>
    <path id="Path_95" data-name="Path 95" d="M10976.97,6537.043q-8.837,0-17.676,0a3.6,3.6,0,0,1-.3-7.183c.185-.008.371-.009.556-.009q17.509,0,35.02,0a3.6,3.6,0,1,1,.248,7.19C10988.865,6537.054,10982.918,6537.043,10976.97,6537.043Z" fill="#b48618"/>
    <path id="Path_96" data-name="Path 96" d="M10970.784,6569.072c-3.836,0-7.672.014-11.507,0a3.6,3.6,0,0,1-.383-7.179c.629-.043,1.259-.069,1.887-.069q10.339-.007,20.679,0a5.43,5.43,0,0,1,2.447.379,3.62,3.62,0,0,1,2,4.013,3.581,3.581,0,0,1-3.508,2.855C10978.529,6569.083,10974.656,6569.072,10970.784,6569.072Z" fill="#b48618"/>
  </g>
</svg>
