<svg xmlns="http://www.w3.org/2000/svg" xmlns:xlink="http://www.w3.org/1999/xlink"  viewBox="0 0 1125 2436">
  <defs>
    <linearGradient id="linear-gradient" y1="0.5" x2="1" y2="0.5" gradientUnits="objectBoundingBox">
      <stop offset="0"/>
      <stop offset="1"/>
    </linearGradient>
  </defs>
  <g id="center" transform="translate(-14852 15396)">
    <g id="center-2" data-name="center" transform="translate(16077 -15396)">
      <path id="Path_302" data-name="Path 302" d="M-1225,0V2436H-100V0Zm563,1301a83,83,0,0,1-83-83,83,83,0,0,1,83-83,83,83,0,0,1,83,83A83,83,0,0,1-662,1301Z" opacity="0.8" fill="url(#linear-gradient)"/>
      <path id="Path_303" data-name="Path 303" d="M-662,1101a117,117,0,0,0-117,117,117,117,0,0,0,117,117,117,117,0,0,0,117-117A117,117,0,0,0-662,1101Zm0,200a83,83,0,0,1-83-83,83,83,0,0,1,83-83,83,83,0,0,1,83,83A83,83,0,0,1-662,1301Z" fill="#fff" opacity="0.3"/>
      <path id="Path_304" data-name="Path 304" d="M-662,1052a166,166,0,0,0-166,166,166,166,0,0,0,166,166,166,166,0,0,0,166-166A166,166,0,0,0-662,1052Zm0,283.761A117.76,117.76,0,0,1-779.761,1218,117.76,117.76,0,0,1-662,1100.239,117.76,117.76,0,0,1-544.239,1218,117.76,117.76,0,0,1-662,1335.761Z" fill="#fff" opacity="0.6"/>
      <path id="Path_305" data-name="Path 305" d="M-662,984c-129.24,0-234,104.76-234,234s104.76,234,234,234,234-104.76,234-234S-532.76,984-662,984Zm0,400a166,166,0,0,1-166-166,166,166,0,0,1,166-166,166,166,0,0,1,166,166A166,166,0,0,1-662,1384Z" fill="#fff"/>
    </g>
    <text id="Touch_for_details" data-name="Touch for details" transform="translate(15233 -13827.246)" fill="#fff" font-size="50" font-family="SegoeUI, Segoe UI"><tspan x="0" y="0">Touch for details</tspan></text>
  </g>
</svg>
