<svg xmlns="http://www.w3.org/2000/svg" fill="#000" width="72.121" height="49.511" viewBox="0 0 72.121 49.511">
  <path id="envelope" d="M1738.569,4047.138a8.244,8.244,0,0,0,.125-5.227,8.484,8.484,0,0,0-8.155-6.09q-22.35-.009-44.7-.005h-10.315a8.449,8.449,0,0,0-3.634.83,8.724,8.724,0,0,0-4.733,5.862l-.083.3v2.952l.067.268c.051.207.115.4.178.6a2.236,2.236,0,0,0-.381,1.23v30.165a2.272,2.272,0,0,0,.08.6,8.705,8.705,0,0,0,4.656,5.833,8.426,8.426,0,0,0,3.713.868h12.7l16.669,0q12.827,0,25.655-.009a8.44,8.44,0,0,0,8.488-8.556c.007-9.68-.117-28.552-.118-28.741A2.212,2.212,0,0,0,1738.569,4047.138Zm-66.987-3.695a4.136,4.136,0,0,1,2.235-2.722,3.935,3.935,0,0,1,1.707-.4h10.315q22.347,0,44.7.005a4,4,0,0,1,3.84,2.88,3.761,3.761,0,0,1-1.648,4.363q-13.239,8.844-26.5,17.663a7.7,7.7,0,0,1-5.9.34l-10.8-7.2q-8.085-5.391-16.176-10.775a4.2,4.2,0,0,1-1.779-2.417Zm62.8,33.316a3.933,3.933,0,0,1-3.984,4.051q-21.159.018-42.319.007h-12.7a3.925,3.925,0,0,1-1.745-.415,4.17,4.17,0,0,1-2.2-2.7v-25.637c5.77,3.839,17.358,11.556,24.155,16.09a14.7,14.7,0,0,0,2.73,1.48,8.4,8.4,0,0,0,9.634-.136l.532-.355a15.134,15.134,0,0,0,1.61-.927c6.55-4.383,18.348-12.166,24.188-16.014C1734.331,4058.349,1734.392,4069.882,1734.387,4076.759Z" transform="translate(-1666.938 -4035.816)"/>
</svg>
