<svg xmlns="http://www.w3.org/2000/svg" width="43.445" height="86.558" viewBox="0 0 43.445 86.558">
  <g id="FacebookLogo" transform="translate(-3676.961 -1759.781)">
    <g id="Group_320" data-name="Group 320">
      <path id="Path_233" data-name="Path 233" d="M3689.555,1846.339c-.014-.421-.041-.842-.041-1.263q0-18.063,0-36.126c0-1.208,0-1.21-1.191-1.21-3.439,0-6.879-.024-10.317.017-.83.01-1.047-.268-1.041-1.064q.05-6.71,0-13.42c-.006-.839.289-1.037,1.076-1.029,3.495.035,6.991-.007,10.486.032.787.008,1.01-.236,1-1.007-.03-3.995-.066-7.992.008-11.985a22.036,22.036,0,0,1,2.665-10.612c2.92-5.177,7.514-7.888,13.3-8.619a57.506,57.506,0,0,1,11.811.094c.786.063,1.569.159,2.355.2.527.029.743.25.741.786q-.018,6.2,0,12.407c0,.593-.227.784-.8.778q-3.256-.028-6.512,0a17.712,17.712,0,0,0-3.527.333,5,5,0,0,0-4.179,4.211,10.8,10.8,0,0,0-.22,2.008c-.024,3.488.005,6.978-.033,10.466-.009.773.282.939.992.934,4-.028,8.006.006,12.009-.03.762-.006.991.21.894.959-.551,4.234-1.053,8.475-1.616,12.709-.244,1.836-.291,1.83-2.188,1.83-3.016,0-6.033.027-9.049-.018-.829-.012-1.042.26-1.041,1.058q.033,18.148.014,36.295c0,.421-.022.843-.034,1.264Z" fill="#1877f2"/>
    </g>
  </g>
</svg>
