<svg xmlns="http://www.w3.org/2000/svg" width="86.558" height="86.558" viewBox="0 0 86.558 86.558">
  <g id="GoogleLogo" transform="translate(-3655.405 -1523.781)">
    <path id="Path_229" data-name="Path 229" d="M3674.588,1576.089l-3.013,11.248-11.012.233a43.354,43.354,0,0,1-.319-40.413h0l9.8,1.8,4.295,9.745a25.826,25.826,0,0,0,.243,17.39Z" fill="#b48618"/>
    <path id="Path_230" data-name="Path 230" d="M3741.207,1558.975a43.261,43.261,0,0,1-15.428,41.836l0,0-12.349-.631-1.747-10.91a25.793,25.793,0,0,0,11.1-13.171h-23.143v-17.122h41.572Z" fill="#518ef8"/>
    <path id="Path_231" data-name="Path 231" d="M3725.776,1600.809l0,0a43.293,43.293,0,0,1-65.215-13.241l14.025-11.48a25.738,25.738,0,0,0,37.091,13.178Z" fill="#28b446"/>
    <path id="Path_232" data-name="Path 232" d="M3726.309,1533.745l-14.021,11.478a25.737,25.737,0,0,0-37.943,13.476l-14.1-11.542h0a43.288,43.288,0,0,1,66.065-13.412Z" fill="#f14336"/>
  </g>
</svg>
