<svg xmlns="http://www.w3.org/2000/svg" width="78.661" height="70.139" viewBox="0 0 78.661 70.139">
  <g id="heart" transform="translate(-727.339 -2264.431)">
    <path id="Path_296" data-name="Path 296" d="M727.339,2285.406a34.844,34.844,0,0,1,1.321-5.816c2.787-7.671,7.953-12.836,16.01-14.609,7.747-1.705,14.387.591,19.833,6.341a20.792,20.792,0,0,1,1.585,1.87c.408.549.679.532,1.089,0a23.131,23.131,0,0,1,6.7-6,19.841,19.841,0,0,1,13.146-2.507,20.672,20.672,0,0,1,12.4,6.32,23.488,23.488,0,0,1,6.253,12.984,25.671,25.671,0,0,1-1.61,13.91,38.412,38.412,0,0,1-7.1,10.865,151.111,151.111,0,0,1-14.5,13.671q-6.264,5.421-12.57,10.793a4.555,4.555,0,0,1-6.347.119c-8.108-7.038-16.517-13.736-24.157-21.305a49.359,49.359,0,0,1-8.624-10.918,27.219,27.219,0,0,1-3.312-9.818c-.023-.175-.077-.347-.116-.52Zm22-16.2c-.407.036-.813.086-1.221.1a14.934,14.934,0,0,0-7.525,2.35c-6.056,3.874-8.469,9.7-8.549,16.621a21.878,21.878,0,0,0,4.209,12.684,67.867,67.867,0,0,0,11.022,12.008c6.134,5.531,12.485,10.814,18.72,16.23.479.416.74.468,1.252.024,5.345-4.647,10.732-9.245,16.079-13.89a86.508,86.508,0,0,0,12.608-12.837c3.914-5.175,6.008-10.873,5.063-17.465-.733-5.108-2.865-9.48-7.093-12.524-5.279-3.8-11.019-4.427-16.935-1.558a19.082,19.082,0,0,0-7.515,7.272c-1.615,2.505-4.006,2.514-5.618.031a25.958,25.958,0,0,0-2.742-3.592A15.777,15.777,0,0,0,749.336,2269.2Z" />
  </g>
</svg>
