<svg xmlns="http://www.w3.org/2000/svg" width="77" height="76.952" viewBox="0 0 77 76.952">
  <g id="LIkeDislike" transform="translate(-8982 -2261.024)">
    <path id="Path_199" data-name="Path 199" d="M8982,2289.826q0-7.237,0-14.475c0-2.115.731-2.851,2.83-2.854,3.385,0,6.771-.012,10.156,0,1.87.009,2.578.757,2.583,2.652a2.186,2.186,0,0,1,0,.32c-.1.657.213.77.785.662a6.74,6.74,0,0,0,5.065-3.63,17.342,17.342,0,0,0,1.566-6.8c.061-.822.009-1.653.062-2.477a2.05,2.05,0,0,1,2.069-2.2,11.547,11.547,0,0,1,5.806,1.187c2.248,1.235,3.127,3.321,3.515,5.7a20.159,20.159,0,0,1,.31,3.737c-.018.683.263.864.9.861a31.037,31.037,0,0,1,3.593.08,7.717,7.717,0,0,1,7.04,7.758q.026,8.678,0,17.354a9.7,9.7,0,0,1-9.547,9.558c-3.812.023-7.624-.019-11.436.013a14.54,14.54,0,0,1-8.265-2.3c-.269-.174-.55-.326-.824-.491-.389-.235-.605-.242-.644.325-.131,1.927-.725,2.462-2.65,2.463q-5.118,0-10.236,0c-1.937,0-2.667-.706-2.671-2.643Q8981.99,2297.223,8982,2289.826Zm42.229-.773c0-2.878.015-5.755-.006-8.633a3.664,3.664,0,0,0-3.867-3.867c-1.785-.013-3.57-.009-5.355,0a2.123,2.123,0,0,1-1.874-.871,3,3,0,0,1-.415-1.76,43.677,43.677,0,0,0-.192-5.265c-.221-1.5-.7-2.8-2.34-3.293-1-.3-1.171-.21-1.226.859a23.985,23.985,0,0,1-.515,3.873c-.643,2.947-1.753,5.65-4.165,7.632a10.994,10.994,0,0,1-5.6,2.351c-.757.1-1.172.3-1.129,1.215.085,1.834.025,3.675.025,5.514q0,6.075,0,12.15c0,.405-.034.794.477.969a10.634,10.634,0,0,1,2.62,1.514,9.419,9.419,0,0,0,5.611,1.791c4.023-.022,8.047-.007,12.069-.023a5.52,5.52,0,0,0,5.879-5.841C9024.245,2294.595,9024.232,2291.824,9024.231,2289.053Zm-38.177.811c0,4.158.012,8.316-.012,12.473,0,.658.2.9.869.884,1.919-.033,3.838-.026,5.757,0,.605.008.859-.188.858-.825q-.021-12.513,0-25.026c0-.629-.226-.836-.845-.826-1.839.029-3.678.009-5.517.01-1.11,0-1.112,0-1.112,1.081Q8986.053,2283.748,8986.055,2289.864Z"/>
    <path id="Path_200" data-name="Path 200" d="M9059,2309.179q0,7.4,0,14.8c0,1.75-.73,2.482-2.471,2.483q-5.24.006-10.478,0c-1.848,0-2.575-.709-2.62-2.538-.029-1.227-.029-1.231-1.211-.961-3.06.7-4.652,2.812-5.437,5.684a27.061,27.061,0,0,0-.813,6.8c-.024,1.837-.738,2.537-2.6,2.529a13.349,13.349,0,0,1-2.7-.3,6.953,6.953,0,0,1-6-6.111,21.553,21.553,0,0,1-.354-4.053c0-.794-.3-1.117-1.15-1.074a18.743,18.743,0,0,1-3.671-.068,7.719,7.719,0,0,1-6.771-7.781c-.068-1.784-.016-3.572-.01-5.358a2.683,2.683,0,0,1,.225-1.089,1.966,1.966,0,0,1,2.152-1.155,1.933,1.933,0,0,1,1.655,1.962c.032,1.812.008,3.626.014,5.439a3.7,3.7,0,0,0,3.969,4.014c1.6.012,3.2,0,4.8,0,2.051.009,2.753.7,2.748,2.729a33.635,33.635,0,0,0,.33,5.737,3.167,3.167,0,0,0,2.537,2.847c.625.148.874.062.909-.68a22.433,22.433,0,0,1,1.415-7.1,10.7,10.7,0,0,1,9.027-7.056c.718-.107.939-.36.938-1.058q-.031-8.877,0-17.755a1.025,1.025,0,0,0-.749-1.139,6.916,6.916,0,0,1-1.87-1.066,10.058,10.058,0,0,0-6.631-2.134,1.976,1.976,0,0,1-2.157-1.52,2.1,2.1,0,0,1,2.4-2.5,15.394,15.394,0,0,1,7.328,2.268c.137.083.273.165.412.244,1.1.624,1.1.624,1.294-.587.209-1.3.993-1.936,2.5-1.942,3.492-.014,6.985,0,10.478,0,.08,0,.16,0,.24,0a2.134,2.134,0,0,1,2.309,2.444Q9059,2301.661,9059,2309.179Zm-11.517-.2c0,4.185.011,8.369-.012,12.553,0,.651.19.9.863.89q2.877-.049,5.756,0c.678.011.867-.263.866-.9q-.021-12.472,0-24.946c0-.623-.211-.842-.837-.832-1.893.029-3.786.046-5.677-.007-.8-.023-.98.266-.975,1.012C9047.5,2300.819,9047.482,2304.9,9047.482,2308.974Z"/>
  </g>
</svg>
