<svg xmlns="http://www.w3.org/2000/svg" fill="#000" width="54.399" height="74.101" viewBox="0 0 54.399 74.101">
  <g id="lock" transform="translate(-1666.507 -4958)">
    <path id="Path_15" data-name="Path 15" d="M1708.545,4976.255c0,1.968.017,3.586-.01,5.2a1.158,1.158,0,0,0,.567,1.076,27.132,27.132,0,0,1,5.221,40.045,26.063,26.063,0,0,1-16.9,9.253,26.413,26.413,0,0,1-21.236-6.165,26.147,26.147,0,0,1-9.415-17.061,26.575,26.575,0,0,1,6.425-21.527,25.255,25.255,0,0,1,5.1-4.542,1.151,1.151,0,0,0,.566-1.076q-.027-4.467,0-8.935a14.857,14.857,0,0,1,29.452-2.45C1708.751,4972.238,1708.452,4974.43,1708.545,4976.255Zm7.283,28.613a22.109,22.109,0,1,0-22.11,22.124A22.08,22.08,0,0,0,1715.828,5004.868Zm-12.321-29.081a26.384,26.384,0,0,0-.223-4.833,9.762,9.762,0,0,0-19.27.764c-.221,2.332-.041,4.666-.128,7-.026.7.128.822.809.574a25.741,25.741,0,0,1,7.966-1.554,26.628,26.628,0,0,1,10.266,1.621c.454.169.6.064.586-.413C1703.492,4977.891,1703.507,4976.839,1703.507,4975.787Z"/>
    <path id="Path_16" data-name="Path 16" d="M1693.711,4992.527A6.2,6.2,0,0,1,1697,5004a1.467,1.467,0,0,0-.795,1.474c.03,3.1.021,6.21.007,9.315a2.434,2.434,0,0,1-1.723,2.384,2.523,2.523,0,0,1-3.311-2.556c.007-3.079-.015-6.159.017-9.238a1.35,1.35,0,0,0-.749-1.344,6.2,6.2,0,0,1,3.263-11.5Zm1.129,6.216a1.139,1.139,0,1,0-1.14,1.138A1.207,1.207,0,0,0,1694.84,4998.743Z"/>
  </g>
</svg>
