<svg xmlns="http://www.w3.org/2000/svg" fill="#000" width="67.745" height="67.767" viewBox="0 0 67.745 67.767">
  <g id="logout" transform="translate(-1663 -5116.167)">
    <path id="Path_24" data-name="Path 24" d="M1701.693,5116.167a10.86,10.86,0,0,1,6.316,3.319,10.292,10.292,0,0,1,2.854,7.126q.012,2.645,0,5.29a2.7,2.7,0,1,1-5.385-.031c-.037-1.959.1-3.919-.108-5.877a5.22,5.22,0,0,0-4.4-4.384,22.154,22.154,0,0,0-2.373-.107h-24.332a5.6,5.6,0,0,0-4.678,2.012,5.866,5.866,0,0,0-1.172,3.837q-.008,11.5,0,23.01,0,11.174,0,22.348a5.6,5.6,0,0,0,1.971,4.632,5.536,5.536,0,0,0,3.628,1.2q12.927.024,25.853,0a5.224,5.224,0,0,0,5.391-3.915,7.059,7.059,0,0,0,.228-1.9c0-1.543-.007-3.086,0-4.628a2.69,2.69,0,1,1,5.377-.006c.009,1.873.016,3.747-.005,5.62A10.653,10.653,0,0,1,1702,5183.8a13.3,13.3,0,0,1-1.908.129q-13.158,0-26.316,0a10.618,10.618,0,0,1-10.706-9.449,11.328,11.328,0,0,1-.04-1.452c0-15.34.047-30.68-.028-46.019a10.8,10.8,0,0,1,9.014-10.774,1.02,1.02,0,0,0,.185-.068Z"/>
    <path id="Path_25" data-name="Path 25" d="M1723.217,5152.85h-.951q-15.175,0-30.35.008a2.767,2.767,0,0,1-2.506-1.186,2.695,2.695,0,0,1,2.261-4.2h31.4c-.052-.323-.261-.434-.409-.583-1.116-1.127-2.248-2.24-3.36-3.372a2.708,2.708,0,0,1-.15-4,2.754,2.754,0,0,1,3.967.134c1.93,1.9,3.855,3.813,5.747,5.753a6.462,6.462,0,0,1,1.878,4.573,6.875,6.875,0,0,1-2.253,5.351c-1.8,1.755-3.553,3.554-5.337,5.322a2.756,2.756,0,0,1-3.2.711,2.7,2.7,0,0,1-.773-4.415c1.107-1.167,2.268-2.283,3.4-3.423C1722.751,5153.345,1722.914,5153.168,1723.217,5152.85Z"/>
  </g>
</svg>
