<svg xmlns="http://www.w3.org/2000/svg" width="74.975" height="75" viewBox="0 0 74.975 75">
  <g id="magnifine" transform="translate(-10332.183 -8454)">
    <path id="Path_99" data-name="Path 99" d="M10365.833,8454a33.618,33.618,0,0,1,32.582,25.181c2.656,10.362.666,19.925-5.616,28.572-.513.706-.454,1.06.141,1.647q6.53,6.453,12.993,12.975a3.817,3.817,0,0,1-.483,5.987,3.86,3.86,0,0,1-4.945-.613q-6.349-6.327-12.681-12.67c-1.25-1.246-.877-1.142-2.211-.184a33.659,33.659,0,1,1-25.687-60.374A31.121,31.121,0,0,1,10365.833,8454Zm-25.95,33.673a25.969,25.969,0,1,0,25.959-26.043A25.829,25.829,0,0,0,10339.883,8487.676Z"/>
  </g>
</svg>
