<svg xmlns="http://www.w3.org/2000/svg" width="57.799" height="97.461" viewBox="0 0 57.799 97.461">
  <g id="oaklaO" transform="translate(-128.006 -2257.755)">
    <path id="Path_294" data-name="Path 294" d="M181.1,2318.476l-.012-.173a23.656,23.656,0,0,0-3.24-11.5,19.325,19.325,0,0,0-8.187-7.333,30.2,30.2,0,0,0-13.283-2.664,30.434,30.434,0,0,0-13.387,2.664,19.192,19.192,0,0,0-8.187,7.333,23.551,23.551,0,0,0-3.24,11.519c-.069,1.292-.1,2.86-.1,4.647s.035,3.39.1,4.773a24.775,24.775,0,0,0,3.113,11.508,18.138,18.138,0,0,0,7.991,7.322c3.609,1.764,8.221,2.664,13.71,2.664a30.856,30.856,0,0,0,13.606-2.675,18.048,18.048,0,0,0,7.991-7.31,25.054,25.054,0,0,0,3.113-11.508l.012-.161c.127-1.326.2-2.883.2-4.612A42.284,42.284,0,0,0,181.1,2318.476Zm-10.954,8.959c-.173,4.866-1.361,8.694-3.563,11.369-2.364,2.883-5.8,4.347-10.2,4.347s-7.841-1.453-10.239-4.324c-2.248-2.687-3.471-6.515-3.632-11.3-.081-1.141-.115-2.606-.115-4.508s.035-3.367.115-4.4c.161-4.8,1.384-8.6,3.621-11.323,2.4-2.917,5.846-4.393,10.251-4.393s7.852,1.487,10.216,4.416c2.191,2.71,3.378,6.515,3.551,11.208.069,1.176.1,2.687.1,4.5S170.214,2326.351,170.145,2327.435Z" transform="translate(0.529 5.977)" />
    <g id="Group_403" data-name="Group 403" transform="translate(128.006 2257.755)">
      <path id="Path_295" data-name="Path 295" d="M128.006,2286.934l29.179-29.179,28.619,28.619-5.707,5.708-22.912-22.911-23.472,23.471Z" transform="translate(-128.006 -2257.755)"/>
    </g>
  </g>
</svg>
