<svg xmlns="http://www.w3.org/2000/svg" fill="#000" width="72.121" height="74.101" viewBox="0 0 72.121 74.101">
  <g id="phone" transform="translate(-1657.646 -3774.324)">
    <path id="Path_12" data-name="Path 12" d="M1699.5,3774.324a43.154,43.154,0,0,1,6.367,1.236,32.917,32.917,0,0,1,19.47,15.288,31.871,31.871,0,0,1,4.431,16.475,2.677,2.677,0,0,1-3.866,2.534,2.861,2.861,0,0,1-1.557-2.8,27.81,27.81,0,0,0-25.481-27.307c-.837-.081-1.689-.031-2.522-.137a2.589,2.589,0,0,1-2.388-2.157,2.675,2.675,0,0,1,1.418-2.9c.125-.073.246-.152.368-.228Z"/>
    <path id="Path_13" data-name="Path 13" d="M1707.755,3848.423c-2.855.051-5.411-1-7.959-2.122a79.679,79.679,0,0,1-20.806-13.171,72.551,72.551,0,0,1-13.68-16.356,76.726,76.726,0,0,1-6.69-13.357c-2.7-7.163.362-14.057,7.471-17.012a9.272,9.272,0,0,1,6.4-.68,10.018,10.018,0,0,1,4.209,2.957,43.266,43.266,0,0,1,7.016,9.513,10.584,10.584,0,0,1,1.626,4.668,7.109,7.109,0,0,1-2.913,5.935,11.52,11.52,0,0,1-1.535,1.083,2.678,2.678,0,0,1-3.067-4.358c.488-.429,1-.826,1.5-1.249a1.577,1.577,0,0,0,.413-2.022,22.518,22.518,0,0,0-1.82-3.284,45.983,45.983,0,0,0-5.636-7.135,2.844,2.844,0,0,0-3.341-.733,10.161,10.161,0,0,0-4.064,2.547c-2.179,2.389-2.244,5.159-1.15,7.978a74.768,74.768,0,0,0,8.335,15.578,68.186,68.186,0,0,0,24.219,21.362,50.2,50.2,0,0,0,8.874,4.02c5.347,1.649,8.654-1.49,10.029-6.045a2.318,2.318,0,0,0-.624-2.4,40.275,40.275,0,0,0-10.383-7.627,1.8,1.8,0,0,0-2.657.566c-.3.347-.549.733-.841,1.085a2.693,2.693,0,0,1-3.754.475,2.639,2.639,0,0,1-.6-3.617,8.5,8.5,0,0,1,5.116-4.086,6.381,6.381,0,0,1,4.168.377,39.555,39.555,0,0,1,13.047,9.4,7.22,7.22,0,0,1,1.7,7.382,14.121,14.121,0,0,1-7.147,9.115A11.738,11.738,0,0,1,1707.755,3848.423Z"/>
    <path id="Path_14" data-name="Path 14" d="M1697.019,3789.489a18.027,18.027,0,0,1,17.194,14.636,22.155,22.155,0,0,1,.328,3.009,2.68,2.68,0,0,1-2.575,2.974,2.648,2.648,0,0,1-2.824-2.787,12.551,12.551,0,0,0-10.266-12.187,13.2,13.2,0,0,0-2.005-.22,2.733,2.733,0,1,1,.148-5.425Z"/>
  </g>
</svg>
