<svg xmlns="http://www.w3.org/2000/svg" fill="#000" width="56.51" height="74.101" viewBox="0 0 56.51 74.101">
  <g id="privacy" transform="translate(-1665.452 -4803)">
    <path id="Path_17" data-name="Path 17" d="M1715.4,4877.1a8.375,8.375,0,0,0,5.486-3.919,7.288,7.288,0,0,0,1.067-3.706q0-29.393-.006-58.784a7.889,7.889,0,0,0-7.7-7.676c-10.653-.023-21.306-.006-31.958-.016a2.514,2.514,0,0,0-1.874.777q-7.078,7.085-14.165,14.161a2.666,2.666,0,0,0-.8,2.011q.015,24.546.01,49.094a7.926,7.926,0,0,0,6.01,7.876c.184.052.364.121.546.182Zm2.118-37.078q0,14.349,0,28.7a3.647,3.647,0,0,1-3.95,3.987q-19.844.01-39.686,0a3.648,3.648,0,0,1-3.98-3.958q-.009-23.024-.016-46.047c0-.65.21-.817.832-.809,2.409.031,4.819,0,7.228.014,6.917.036,6.449.483,6.416-6.452-.011-2.434.01-4.868-.01-7.3,0-.523.149-.72.7-.719q14.349.02,28.7.016a3.582,3.582,0,0,1,3.576,2.518,6.132,6.132,0,0,1,.2,1.715Q1717.517,4825.855,1717.522,4840.023Zm-37.6-29.256c0,2.046-.02,4.015.012,5.983.01.593-.217.734-.762.726-1.826-.025-3.652-.007-5.478-.014-.147,0-.338.087-.394-.024Z"/>
    <path id="Path_18" data-name="Path 18" d="M1710.393,4842.023c0-2.805,0-5.069,0-7.334a2.2,2.2,0,0,0-2.3-2.474,7.121,7.121,0,0,1-6.378-4.16,2.644,2.644,0,0,0-2.689-1.638c-3.614.048-7.229.032-10.842.007a2.373,2.373,0,0,0-2.369,1.434,7.285,7.285,0,0,1-6.7,4.369,2.118,2.118,0,0,0-2.08,2.165c-.011,4.674-.212,9.36.06,14.019a22.467,22.467,0,0,0,15.548,19.868,3.025,3.025,0,0,0,1.982.039c8.782-3.053,13.968-9.189,15.562-18.32C1710.68,4847.188,1710.3,4844.322,1710.393,4842.023Zm-4.441.5c-.069,1.633.1,3.633-.1,5.631-.735,7.428-4.577,12.551-11.412,15.478a1.765,1.765,0,0,1-1.448.006,17.974,17.974,0,0,1-11.512-16.771c-.051-3.229,0-6.459-.017-9.689a.728.728,0,0,1,.637-.856,11.21,11.21,0,0,0,6.876-4.931.99.99,0,0,1,.936-.524q3.8.028,7.591,0a.993.993,0,0,1,.94.516,11.2,11.2,0,0,0,6.872,4.937.725.725,0,0,1,.646.85C1705.939,4838.83,1705.952,4840.494,1705.952,4842.521Z"/>
    <path id="Path_19" data-name="Path 19" d="M1699.847,4845.231a2.225,2.225,0,0,0-1.682.718c-.6.6-1.225,1.164-1.78,1.8-.452.514-.756.533-1.254.02-1.93-1.987-3.9-3.932-5.867-5.886a2.223,2.223,0,0,0-2.377-.637,2.17,2.17,0,0,0-1.518,1.772,1.987,1.987,0,0,0,.572,1.858q4.149,4.182,8.334,8.326a2.073,2.073,0,0,0,2.953.012c1.476-1.383,2.906-2.817,4.3-4.287a2.055,2.055,0,0,0,.34-2.422A2.166,2.166,0,0,0,1699.847,4845.231Z"/>
  </g>
</svg>
