<svg xmlns="http://www.w3.org/2000/svg" xmlns:xlink="http://www.w3.org/1999/xlink" viewBox="0 0 1125 2436">
  <defs>
    <linearGradient id="linear-gradient" y1="0.5" x2="1" y2="0.5" gradientUnits="objectBoundingBox">
      <stop offset="0"/>
      <stop offset="1"/>
    </linearGradient>
  </defs>
  <g id="right" transform="translate(-12105 14472)">
    <path id="Path_342" data-name="Path 342" d="M1125,0V2436H0V1385a83.5,83.5,0,0,1,83.5-83.5h96A83.5,83.5,0,0,0,263,1218h0a83.5,83.5,0,0,0-83.5-83.5h-96A83.5,83.5,0,0,1,0,1051V0Z" transform="translate(12105 -14472)" opacity="0.85" fill="url(#linear-gradient)"/>
    <g id="Group_453" data-name="Group 453" transform="translate(12446.887 -13287.299) rotate(90)">
      <path id="Path_295" data-name="Path 295" d="M128.006,2286.934l29.179-29.179,28.619,28.619-5.707,5.708-22.912-22.911-23.472,23.471Z" transform="translate(-128.006 -2257.755)" fill="#b48618"/>
    </g>
    <text id="Swipe_Right_to_Like" data-name="Swipe Right to Like" transform="translate(12468.896 -13242.5)" fill="#fff" font-size="50" font-family="SegoeUI, Segoe UI"><tspan x="0" y="0">Swipe Right to Like</tspan></text>
    <path id="Path_343" data-name="Path 343" d="M5938,1938.236q0-9.223,0-18.447c0-2.7.932-3.634,3.607-3.637,4.315-.005,8.629-.015,12.943.005,2.384.012,3.285.965,3.292,3.381a2.631,2.631,0,0,1,0,.407c-.131.837.271.982,1,.845a8.588,8.588,0,0,0,6.456-4.627,22.1,22.1,0,0,0,2-8.669c.077-1.049.011-2.108.079-3.158.11-1.709,1.026-2.789,2.636-2.8a14.706,14.706,0,0,1,7.4,1.513c2.865,1.573,3.986,4.231,4.478,7.261a25.63,25.63,0,0,1,.4,4.762c-.023.871.336,1.1,1.146,1.1a39.771,39.771,0,0,1,4.579.1,9.837,9.837,0,0,1,8.972,9.888q.034,11.058,0,22.115a12.357,12.357,0,0,1-12.167,12.182c-4.858.029-9.716-.025-14.574.017a18.545,18.545,0,0,1-10.532-2.938c-.342-.222-.7-.416-1.051-.626-.495-.3-.771-.309-.82.414-.166,2.456-.922,3.138-3.377,3.139q-6.524,0-13.045,0c-2.47,0-3.4-.9-3.405-3.368Q5937.988,1947.663,5938,1938.236Zm53.816-.985c0-3.667.02-7.335-.006-11a4.67,4.67,0,0,0-4.929-4.928c-2.275-.017-4.55-.012-6.825,0a2.713,2.713,0,0,1-2.388-1.11,3.85,3.85,0,0,1-.529-2.244,55.476,55.476,0,0,0-.246-6.71c-.28-1.913-.887-3.57-2.98-4.2-1.269-.38-1.493-.267-1.562,1.095a30.547,30.547,0,0,1-.657,4.937c-.819,3.755-2.234,7.2-5.308,9.726a14.005,14.005,0,0,1-7.137,3c-.964.134-1.494.376-1.439,1.548.109,2.338.032,4.684.032,7.027q0,7.742,0,15.484c0,.517-.043,1.012.608,1.236a13.556,13.556,0,0,1,3.339,1.928,12,12,0,0,0,7.151,2.283c5.127-.028,10.255-.009,15.382-.029,4.533-.019,7.464-2.928,7.492-7.444C5991.838,1944.314,5991.821,1940.782,5991.819,1937.251Zm-48.652,1.034c0,5.3.015,10.6-.015,15.9,0,.837.26,1.139,1.108,1.125,2.445-.041,4.891-.033,7.336,0,.771.009,1.095-.24,1.094-1.052q-.026-15.946,0-31.893c0-.8-.286-1.066-1.076-1.053-2.343.037-4.687.012-7.03.013-1.415,0-1.417,0-1.418,1.378Q5943.166,1930.489,5943.167,1938.285Z" transform="translate(6999.5 -15197.612)" fill="#39b54a"/>
  </g>
</svg>
