<svg xmlns="http://www.w3.org/2000/svg" fill="#000" width="59.038" height="57.043" viewBox="0 0 59.038 57.043">
  <g id="shareicon" transform="translate(-9429 -4057.994)">
    <path id="Path_170" data-name="Path 170" d="M9429,4086.539a12.355,12.355,0,0,1,11.34-12.191,12.526,12.526,0,0,1,11.122,4.438.676.676,0,0,0,.978.2q5.073-2.476,10.17-4.9a.64.64,0,0,0,.408-.891c-1.808-7.229,3.283-14.251,10.948-15.119,6.641-.751,12.956,3.958,13.9,10.366a12.314,12.314,0,0,1-11.2,14.027,12.5,12.5,0,0,1-11.125-4.428.674.674,0,0,0-.976-.208q-5.071,2.478-10.169,4.9a.638.638,0,0,0-.418.887,11.29,11.29,0,0,1,0,5.837.638.638,0,0,0,.42.885q5.1,2.426,10.17,4.905a.678.678,0,0,0,.975-.21,12.4,12.4,0,0,1,12.8-4.11,11.922,11.922,0,0,1,9.419,9.484c1.532,6.674-3.467,13.552-10.456,14.495-7.286.983-13.659-3.69-14.588-10.742a10.25,10.25,0,0,1,.3-4.281.628.628,0,0,0-.409-.889q-5.1-2.422-10.171-4.9a.675.675,0,0,0-.976.2,12.914,12.914,0,0,1-18.786.877A11.732,11.732,0,0,1,9429,4086.539Zm46.329-8.18a8.2,8.2,0,0,0,8.334-8.052,8.341,8.341,0,0,0-16.672-.059C9466.97,4074.77,9470.636,4078.244,9475.329,4078.359Zm-42.017,8.157a8.2,8.2,0,0,0,8.309,8.076,8.06,8.06,0,1,0,.108-16.109A8.208,8.208,0,0,0,9433.313,4086.516Zm42.017,24.361c4.646-.118,8.309-3.507,8.334-8.051a8.341,8.341,0,0,0-16.673-.06A8.208,8.208,0,0,0,9475.329,4110.877Z" transform="translate(0 0)"/>
  </g>
</svg>
