<svg xmlns="http://www.w3.org/2000/svg" fill="#000" width="55.685" height="74.101" viewBox="0 0 55.685 74.101">
  <g id="terms" transform="translate(-1665.864 -4648)">
    <path id="Path_20" data-name="Path 20" d="M1721.523,4692.324c0,7.382.028,14.765-.011,22.147-.026,4.954-2.687,7.6-7.682,7.608q-20.133.043-40.268,0c-5-.011-7.672-2.652-7.679-7.607q-.038-29.481,0-58.964c.007-4.79,2.7-7.452,7.514-7.474,8.82-.04,17.641.021,26.461-.035a7.09,7.09,0,0,1,5.4,2.186q6.977,7.056,14.037,14.031a7.359,7.359,0,0,1,2.246,5.672C1721.481,4677.367,1721.523,4684.845,1721.523,4692.324Zm-50.642-7.412c0,9.392.035,18.785-.023,28.177-.015,2.53.739,4.016,3.57,4.007q19.265-.064,38.528,0c2.586.007,3.581-1.208,3.574-3.709q-.057-19.695.018-39.39c.011-2.1-.861-2.668-2.762-2.57-2.007.1-4.024.031-6.036.02-6.466-.035-9.622-3.237-9.649-9.786-.008-2.012-.1-4.031.023-6.036.127-2.055-.765-2.644-2.71-2.621-6.708.079-13.417.019-20.126.034-3.874.009-4.4.556-4.4,4.562Q1670.868,4671.255,1670.881,4684.912Zm42.1-18.826-9.686-9.115C1701.737,4665.069,1704.353,4667.8,1712.977,4666.086Z"/>
    <path id="Path_21" data-name="Path 21" d="M1693.541,4685.248c-3.83,0-7.662-.042-11.491.019-1.717.027-2.377-.666-2.384-2.382-.008-1.741.446-2.665,2.41-2.65,7.756.062,15.513.05,23.27.007,1.716-.01,2.376.666,2.384,2.382.007,1.74-.445,2.691-2.41,2.649C1701.4,4685.189,1697.467,4685.248,1693.541,4685.248Z"/>
    <path id="Path_22" data-name="Path 22" d="M1693.985,4689.467c3.735,0,7.471.052,11.2-.023,1.832-.036,2.549.653,2.549,2.519s-.72,2.531-2.55,2.518q-11.49-.081-22.982,0c-1.831.013-2.548-.653-2.548-2.519s.718-2.552,2.549-2.518C1686.132,4689.518,1690.059,4689.467,1693.985,4689.467Z"/>
    <path id="Path_23" data-name="Path 23" d="M1689.093,4703.66c-2.392,0-4.786-.052-7.177.016-1.826.053-2.243-.906-2.243-2.506s.418-2.528,2.244-2.507q7.176.084,14.354,0c1.826-.021,2.243.909,2.243,2.508s-.418,2.558-2.244,2.506C1693.879,4703.608,1691.486,4703.66,1689.093,4703.66Z"/>
  </g>
</svg>
