<svg xmlns="http://www.w3.org/2000/svg" width="49.556" height="49.529" viewBox="0 0 49.556 49.529">
  <g id="upFinger" transform="translate(-321.137 -320.4)">
    <path id="Path_306" data-name="Path 306" d="M404.149,364.905a1.059,1.059,0,0,0,.048-.55q0-7.442,0-14.884a4.928,4.928,0,0,1,5.153-5.04,5.046,5.046,0,0,1,4.8,4.813c.026,2.661.019,5.322,0,7.982a.672.672,0,0,0,.557.76c2.642.864,5.275,1.754,7.912,2.63a8.269,8.269,0,0,1,5.93,8.38c-.087,1.589-.351,3.168-.538,4.751q-.224,1.889-.459,3.777a.694.694,0,0,0,.28.667A3.282,3.282,0,0,1,429,380.83c-.014,2.146,0,4.292-.006,6.438a3.272,3.272,0,0,1-3.379,3.381q-9.836.007-19.673,0a3.273,3.273,0,0,1-3.388-3.372c-.007-2.2,0-4.395,0-6.592a2.813,2.813,0,0,1,.61-1.871c.334-.4.185-.59-.1-.876q-3.707-3.686-7.394-7.391a3.339,3.339,0,0,1-.592-4.358,5.6,5.6,0,0,1,3.171-2.163,6.6,6.6,0,0,1,5.584.746c.073.045.145.093.221.131C404.072,364.916,404.11,364.905,404.149,364.905Zm3.419-5.619c0,3.176-.007,6.352.005,9.528a1.723,1.723,0,0,1-1.029,1.742,1.764,1.764,0,0,1-2.016-.48c-.684-.676-1.349-1.37-2.044-2.034a3.335,3.335,0,0,0-4.133-.363c-.275.186-.394.329-.1.626q4.417,4.4,8.813,8.813a.894.894,0,0,0,.685.279q7.957-.008,15.914,0c.368,0,.5-.121.538-.5.267-2.42.525-4.841.857-7.252a4.939,4.939,0,0,0-3.528-5.791q-4.638-1.549-9.277-3.1a1.77,1.77,0,0,1-1.464-2.052q0-4.4,0-8.807a3.394,3.394,0,0,0-.1-.918,1.584,1.584,0,0,0-1.932-1.1,1.648,1.648,0,0,0-1.193,1.77Q407.564,354.471,407.569,359.286Zm8.2,21.476c-3.09,0-6.181.008-9.271-.009-.444,0-.6.116-.592.578q.036,2.7,0,5.408c0,.436.147.551.565.551q9.3-.016,18.594,0c.418,0,.57-.115.565-.551-.021-1.785-.026-3.571,0-5.356.008-.506-.157-.634-.645-.631C421.92,380.772,418.847,380.762,415.774,380.762Z" transform="translate(-63.274 -20.724)" fill="#b48618"/>
    <path id="Path_307" data-name="Path 307" d="M571.227,323.7c-.039-.258-.208-.342-.309-.472a1.71,1.71,0,0,1,.108-2.337,1.641,1.641,0,0,1,2.29-.058q1.778,1.678,3.455,3.462a1.661,1.661,0,0,1-.126,2.336q-1.595,1.646-3.242,3.241a1.706,1.706,0,1,1-2.43-2.394l.272-.313c-.181-.164-.378-.091-.554-.092q-4.2-.009-8.395-.006a1.6,1.6,0,0,1-1.525-.958,1.623,1.623,0,0,1,.205-1.793,1.662,1.662,0,0,1,1.4-.62c2.747.007,5.494,0,8.24,0Z" transform="translate(-206.5)" fill="#b48618"/>
    <path id="Path_308" data-name="Path 308" d="M326.988,327.144a2.723,2.723,0,0,1,.808,1.315,1.692,1.692,0,0,1-.806,1.758,1.729,1.729,0,0,1-2.053-.246c-.675-.634-1.317-1.3-1.973-1.957-.413-.412-.832-.819-1.236-1.239a1.752,1.752,0,0,1-.014-2.612q1.547-1.583,3.13-3.13a1.7,1.7,0,0,1,2.41-.1,1.718,1.718,0,0,1,.068,2.45c-.083.1-.225.164-.22.334a.976.976,0,0,0,.546.051c2.8,0,5.593,0,8.39.007a1.631,1.631,0,0,1,1.606,1.21,1.705,1.705,0,0,1-.706,1.893,1.84,1.84,0,0,1-1.08.264q-4.092-.007-8.184,0Z" transform="translate(0 -0.07)" fill="#b48618"/>
  </g>
</svg>
